<svg width="800" height="200" viewBox="0 0 800 200" xmlns="http://www.w3.org/2000/svg">
  <defs>
    <linearGradient id="wave-gradient" x1="0%" y1="0%" x2="100%" y2="0%">
      <stop offset="0%" stop-color="#20DDBB" />
      <stop offset="50%" stop-color="#8B5CF6" />
      <stop offset="100%" stop-color="#20DDBB" />
    </linearGradient>
    <!-- Фильтр свечения -->
    <filter id="glow" x="-20%" y="-20%" width="140%" height="140%">
      <feGaussianBlur stdDeviation="4" result="blur" />
      <feComposite in="SourceGraphic" in2="blur" operator="over" />
    </filter>
  </defs>
  
  <!-- Первая волна -->
  <path d="M0,100 C20,120 40,80 60,100 C80,120 100,80 120,100 C140,120 160,80 180,100 C200,120 220,80 240,100 C260,120 280,80 300,100 C320,120 340,80 360,100 C380,120 400,80 420,100 C440,120 460,80 480,100 C500,120 520,80 540,100 C560,120 580,80 600,100 C620,120 640,80 660,100 C680,120 700,80 720,100 C740,120 760,80 780,100 C800,120 820,80 840,100" 
        fill="none" 
        stroke="url(#wave-gradient)" 
        stroke-width="2"
        filter="url(#glow)"
        opacity="0.6">
    <animate attributeName="d" 
             dur="8s" 
             repeatCount="indefinite" 
             values="
               M0,100 C20,120 40,80 60,100 C80,120 100,80 120,100 C140,120 160,80 180,100 C200,120 220,80 240,100 C260,120 280,80 300,100 C320,120 340,80 360,100 C380,120 400,80 420,100 C440,120 460,80 480,100 C500,120 520,80 540,100 C560,120 580,80 600,100 C620,120 640,80 660,100 C680,120 700,80 720,100 C740,120 760,80 780,100 C800,120 820,80 840,100;
               M0,100 C20,90 40,110 60,100 C80,90 100,110 120,100 C140,90 160,110 180,100 C200,90 220,110 240,100 C260,90 280,110 300,100 C320,90 340,110 360,100 C380,90 400,110 420,100 C440,90 460,110 480,100 C500,90 520,110 540,100 C560,90 580,110 600,100 C620,90 640,110 660,100 C680,90 700,110 720,100 C740,90 760,110 780,100 C800,90 820,110 840,100;
               M0,100 C20,120 40,80 60,100 C80,120 100,80 120,100 C140,120 160,80 180,100 C200,120 220,80 240,100 C260,120 280,80 300,100 C320,120 340,80 360,100 C380,120 400,80 420,100 C440,120 460,80 480,100 C500,120 520,80 540,100 C560,120 580,80 600,100 C620,120 640,80 660,100 C680,120 700,80 720,100 C740,120 760,80 780,100 C800,120 820,80 840,100"
    />
  </path>
  
  <!-- Вторая волна -->
  <path d="M0,100 C30,130 60,70 90,100 C120,130 150,70 180,100 C210,130 240,70 270,100 C300,130 330,70 360,100 C390,130 420,70 450,100 C480,130 510,70 540,100 C570,130 600,70 630,100 C660,130 690,70 720,100 C750,130 780,70 810,100" 
        fill="none" 
        stroke="url(#wave-gradient)" 
        stroke-width="1.5"
        filter="url(#glow)"
        opacity="0.4">
    <animate attributeName="d" 
             dur="10s" 
             repeatCount="indefinite" 
             values="
               M0,100 C30,130 60,70 90,100 C120,130 150,70 180,100 C210,130 240,70 270,100 C300,130 330,70 360,100 C390,130 420,70 450,100 C480,130 510,70 540,100 C570,130 600,70 630,100 C660,130 690,70 720,100 C750,130 780,70 810,100;
               M0,100 C30,80 60,120 90,100 C120,80 150,120 180,100 C210,80 240,120 270,100 C300,80 330,120 360,100 C390,80 420,120 450,100 C480,80 510,120 540,100 C570,80 600,120 630,100 C660,80 690,120 720,100 C750,80 780,120 810,100;
               M0,100 C30,130 60,70 90,100 C120,130 150,70 180,100 C210,130 240,70 270,100 C300,130 330,70 360,100 C390,130 420,70 450,100 C480,130 510,70 540,100 C570,130 600,70 630,100 C660,130 690,70 720,100 C750,130 780,70 810,100"
    />
  </path>
  
  <!-- Третья волна -->
  <path d="M0,100 C40,140 80,60 120,100 C160,140 200,60 240,100 C280,140 320,60 360,100 C400,140 440,60 480,100 C520,140 560,60 600,100 C640,140 680,60 720,100 C760,140 800,60 840,100" 
        fill="none" 
        stroke="url(#wave-gradient)" 
        stroke-width="1"
        filter="url(#glow)"
        opacity="0.3">
    <animate attributeName="d" 
             dur="12s" 
             repeatCount="indefinite" 
             values="
               M0,100 C40,140 80,60 120,100 C160,140 200,60 240,100 C280,140 320,60 360,100 C400,140 440,60 480,100 C520,140 560,60 600,100 C640,140 680,60 720,100 C760,140 800,60 840,100;
               M0,100 C40,70 80,130 120,100 C160,70 200,130 240,100 C280,70 320,130 360,100 C400,70 440,130 480,100 C520,70 560,130 600,100 C640,70 680,130 720,100 C760,70 800,130 840,100;
               M0,100 C40,140 80,60 120,100 C160,140 200,60 240,100 C280,140 320,60 360,100 C400,140 440,60 480,100 C520,140 560,60 600,100 C640,140 680,60 720,100 C760,140 800,60 840,100"
    />
  </path>
  
  <!-- Музыкальные ноты -->
  <g opacity="0.7" filter="url(#glow)">
    <!-- Первая нота -->
    <circle cx="150" cy="60" r="4" fill="url(#wave-gradient)">
      <animate attributeName="cy" 
               dur="7s" 
               repeatCount="indefinite" 
               values="60;85;60;45;60"
               calcMode="spline"
               keySplines="0.4 0 0.6 1; 0.4 0 0.6 1; 0.4 0 0.6 1; 0.4 0 0.6 1" />
    </circle>
    <path d="M150,60 L150,40 L160,35 L155,60" fill="url(#wave-gradient)">
      <animate attributeName="d" 
               dur="7s" 
               repeatCount="indefinite" 
               values="M150,60 L150,40 L160,35 L155,60; M150,85 L150,65 L160,60 L155,85; M150,60 L150,40 L160,35 L155,60; M150,45 L150,25 L160,20 L155,45; M150,60 L150,40 L160,35 L155,60"
               calcMode="spline"
               keySplines="0.4 0 0.6 1; 0.4 0 0.6 1; 0.4 0 0.6 1; 0.4 0 0.6 1" />
    </path>
    
    <!-- Вторая нота -->
    <circle cx="350" cy="70" r="4" fill="url(#wave-gradient)">
      <animate attributeName="cy" 
               dur="8s" 
               repeatCount="indefinite" 
               values="70;50;90;70"
               calcMode="spline"
               keySplines="0.4 0 0.6 1; 0.4 0 0.6 1; 0.4 0 0.6 1" />
    </circle>
    <path d="M350,70 L350,50 L360,45 L355,70" fill="url(#wave-gradient)">
      <animate attributeName="d" 
               dur="8s" 
               repeatCount="indefinite" 
               values="M350,70 L350,50 L360,45 L355,70; M350,50 L350,30 L360,25 L355,50; M350,90 L350,70 L360,65 L355,90; M350,70 L350,50 L360,45 L355,70"
               calcMode="spline"
               keySplines="0.4 0 0.6 1; 0.4 0 0.6 1; 0.4 0 0.6 1" />
    </path>
    
    <!-- Третья нота -->
    <circle cx="550" cy="65" r="4" fill="url(#wave-gradient)">
      <animate attributeName="cy" 
               dur="9s" 
               repeatCount="indefinite" 
               values="65;95;55;65"
               calcMode="spline"
               keySplines="0.4 0 0.6 1; 0.4 0 0.6 1; 0.4 0 0.6 1" />
    </circle>
    <path d="M550,65 L550,45 L560,40 L555,65" fill="url(#wave-gradient)">
      <animate attributeName="d" 
               dur="9s" 
               repeatCount="indefinite" 
               values="M550,65 L550,45 L560,40 L555,65; M550,95 L550,75 L560,70 L555,95; M550,55 L550,35 L560,30 L555,55; M550,65 L550,45 L560,40 L555,65"
               calcMode="spline"
               keySplines="0.4 0 0.6 1; 0.4 0 0.6 1; 0.4 0 0.6 1" />
    </path>
  </g>
  
  <!-- Точки-пульсации на волне -->
  <g>
    <circle cx="120" cy="100" r="3" fill="#20DDBB" filter="url(#glow)">
      <animate attributeName="r" dur="3s" values="2;5;2" repeatCount="indefinite" />
      <animate attributeName="opacity" dur="3s" values="0.5;1;0.5" repeatCount="indefinite" />
    </circle>
    
    <circle cx="240" cy="100" r="3" fill="#8B5CF6" filter="url(#glow)">
      <animate attributeName="r" dur="2.5s" values="2;4;2" repeatCount="indefinite" />
      <animate attributeName="opacity" dur="2.5s" values="0.6;1;0.6" repeatCount="indefinite" />
    </circle>
    
    <circle cx="360" cy="100" r="3" fill="#20DDBB" filter="url(#glow)">
      <animate attributeName="r" dur="4s" values="2;6;2" repeatCount="indefinite" />
      <animate attributeName="opacity" dur="4s" values="0.4;0.9;0.4" repeatCount="indefinite" />
    </circle>
    
    <circle cx="480" cy="100" r="3" fill="#8B5CF6" filter="url(#glow)">
      <animate attributeName="r" dur="3.5s" values="2;5;2" repeatCount="indefinite" />
      <animate attributeName="opacity" dur="3.5s" values="0.5;1;0.5" repeatCount="indefinite" />
    </circle>
    
    <circle cx="600" cy="100" r="3" fill="#20DDBB" filter="url(#glow)">
      <animate attributeName="r" dur="2.8s" values="2;4;2" repeatCount="indefinite" />
      <animate attributeName="opacity" dur="2.8s" values="0.6;1;0.6" repeatCount="indefinite" />
    </circle>
    
    <circle cx="720" cy="100" r="3" fill="#8B5CF6" filter="url(#glow)">
      <animate attributeName="r" dur="3.2s" values="2;5;2" repeatCount="indefinite" />
      <animate attributeName="opacity" dur="3.2s" values="0.5;0.9;0.5" repeatCount="indefinite" />
    </circle>
  </g>
</svg> 