<svg xmlns="http://www.w3.org/2000/svg" width="400" height="400" viewBox="0 0 400 400">
  <!-- Definitions for gradients and animations -->
  <defs>
    <linearGradient id="bgGradient" x1="0%" y1="0%" x2="100%" y2="100%">
      <stop offset="0%" stop-color="#24183D">
        <animate attributeName="stop-color" values="#24183D; #1A2338; #24183D" dur="8s" repeatCount="indefinite" />
      </stop>
      <stop offset="100%" stop-color="#1A2338">
        <animate attributeName="stop-color" values="#1A2338; #24183D; #1A2338" dur="8s" repeatCount="indefinite" />
      </stop>
    </linearGradient>
    
    <radialGradient id="glowGradient" cx="50%" cy="50%" r="50%" fx="50%" fy="50%">
      <stop offset="0%" stop-color="#20DDBB" stop-opacity="0.6" />
      <stop offset="100%" stop-color="#20DDBB" stop-opacity="0" />
    </radialGradient>
    
    <filter id="glow" x="-50%" y="-50%" width="200%" height="200%">
      <feGaussianBlur stdDeviation="5" result="blur" />
      <feComposite in="SourceGraphic" in2="blur" operator="over" />
    </filter>
    
    <!-- Animation paths for floating particles -->
    <path id="floatPath1" d="M30,50 C60,30 80,70 110,50" />
    <path id="floatPath2" d="M70,150 C100,130 120,170 150,150" />
    <path id="floatPath3" d="M220,80 C250,60 270,100 300,80" />
    
    <!-- Animation for the ring -->
    <animateTransform id="ringRotate" 
      attributeName="transform"
      attributeType="XML"
      type="rotate"
      from="0 200 200"
      to="360 200 200"
      dur="30s"
      repeatCount="indefinite"
    />
  </defs>
  
  <!-- Background with animated gradient -->
  <rect width="400" height="400" fill="url(#bgGradient)" rx="20" ry="20" />
  
  <!-- Glowing background circle -->
  <circle cx="200" cy="200" r="160" fill="url(#glowGradient)" opacity="0.4">
    <animate attributeName="opacity" values="0.4;0.6;0.4" dur="3s" repeatCount="indefinite" />
  </circle>
  
  <!-- Decorative ring -->
  <circle cx="200" cy="200" r="150" fill="none" stroke="#20DDBB" stroke-width="1" stroke-opacity="0.3" stroke-dasharray="10 5">
    <animateTransform attributeName="transform" attributeType="XML" type="rotate" from="0 200 200" to="360 200 200" dur="30s" repeatCount="indefinite" />
  </circle>
  
  <!-- User silhouette with glow effect -->
  <g transform="translate(120, 90)" filter="url(#glow)">
    <!-- Head -->
    <circle cx="80" cy="60" r="50" fill="#20DDBB" opacity="0.9" />
    
    <!-- Body -->
    <path d="M40,120 C40,180 120,180 120,120 L120,110 C120,85 100,65 80,65 C60,65 40,85 40,110 L40,120" fill="#20DDBB" opacity="0.9" />
    
    <!-- Decorative elements -->
    <circle cx="80" cy="35" r="8" fill="#24183D" />
    <path d="M60,50 C60,70 100,70 100,50" fill="none" stroke="#24183D" stroke-width="3" stroke-linecap="round" />
  </g>
  
  <!-- Floating particles -->
  <g>
    <circle cx="0" cy="0" r="5" fill="#20DDBB" opacity="0.7">
      <animateMotion dur="6s" repeatCount="indefinite" path="M50,70 C70,50 90,90 120,70" />
    </circle>
    
    <circle cx="0" cy="0" r="3" fill="#20DDBB" opacity="0.5">
      <animateMotion dur="8s" repeatCount="indefinite" path="M300,120 C320,100 340,140 370,120" />
    </circle>
    
    <circle cx="0" cy="0" r="4" fill="#20DDBB" opacity="0.6">
      <animateMotion dur="7s" repeatCount="indefinite" path="M180,300 C200,280 220,320 250,300" />
    </circle>
    
    <circle cx="0" cy="0" r="2" fill="white" opacity="0.7">
      <animateMotion dur="10s" repeatCount="indefinite" path="M80,250 C100,230 120,270 150,250" />
    </circle>
  </g>
  
  <!-- Subtle geometric pattern -->
  <g opacity="0.2" stroke="#ffffff" stroke-width="0.5">
    <line x1="50" y1="50" x2="50" y2="350" />
    <line x1="100" y1="50" x2="100" y2="350" />
    <line x1="300" y1="50" x2="300" y2="350" />
    <line x1="350" y1="50" x2="350" y2="350" />
    <line x1="50" y1="50" x2="350" y2="50" />
    <line x1="50" y1="350" x2="350" y2="350" />
    <line x1="50" y1="150" x2="350" y2="150" />
    <line x1="50" y1="250" x2="350" y2="250" />
  </g>
</svg> 